<svg width="504" height="80" viewBox="0 0 504 80" fill="none" xmlns="http://www.w3.org/2000/svg">
<path d="M265.228 12.8067C262.114 12.8067 259.587 15.3311 259.587 18.4437C259.587 21.5563 262.114 24.0807 265.228 24.0807C268.341 24.0807 270.868 21.5563 270.868 18.4437C270.868 15.3311 268.345 12.8067 265.228 12.8067Z" fill="#5A14BD"/>
<path d="M179.75 31.7445C178.734 29.9328 177.324 28.5176 175.513 27.5092C173.701 26.4975 171.583 25.9899 169.171 25.9899C166.947 25.9899 165.011 26.447 163.351 27.3647C162.329 27.9294 161.482 28.6857 160.808 29.6302V14.0605H152.037V58.9412H160.808V39.9563C160.808 38.7092 161.051 37.637 161.536 36.7395C162.026 35.842 162.714 35.1395 163.611 34.6353C164.505 34.1277 165.52 33.8756 166.651 33.8756C167.781 33.8756 168.843 34.1311 169.72 34.6353C170.598 35.1428 171.279 35.8454 171.768 36.7395C172.257 37.637 172.497 38.7092 172.497 39.9563V58.9412H181.268V38.084C181.268 35.6672 180.759 33.5563 179.747 31.7412H179.743L179.75 31.7445Z" fill="#5A14BD"/>
<path d="M17.2824 25.3445C7.82991 25.3445 0.168701 33.0084 0.168701 42.4571C0.168701 51.9059 7.82991 59.563 17.2824 59.563C26.735 59.563 34.3962 51.9025 34.3962 42.4571C34.3962 33.0118 26.735 25.3513 17.2824 25.3513V25.3445ZM17.2824 51.3076C12.3909 51.3076 8.42701 47.3445 8.42701 42.4538C8.42701 37.563 12.3942 33.6 17.2824 33.6C22.1706 33.6 26.1379 37.563 26.1379 42.4538C26.1379 47.3445 22.174 51.3076 17.2824 51.3076Z" fill="#5A14BD"/>
<path d="M29.6497 62.8907H29.4878C27.7437 62.8907 26.2391 64.037 25.6859 65.6907C24.5153 69.2067 21.1958 71.7445 17.2791 71.7445C13.3625 71.7445 10.0464 69.2067 8.87239 65.6907C8.31914 64.037 6.81456 62.8907 5.07047 62.8907H4.90854C2.14902 62.8907 0.145167 65.5765 0.998661 68.1949C3.23191 75.0454 9.67529 79.9966 17.2758 79.9966C24.8763 79.9966 31.3196 75.0454 33.5529 68.1949C34.4064 65.5731 32.4025 62.8907 29.643 62.8907H29.6497Z" fill="#5A14BD"/>
<path d="M260.899 58.9412H269.674L269.613 26.6017H260.845L260.903 58.9412H260.899Z" fill="#5A14BD"/>
<path d="M290.91 59.2874C287.051 59.2874 284.058 58.2454 281.936 56.158C279.811 54.0739 278.752 51.4487 278.752 47.7076V34.2823H273.375V26.595H273.668C275.308 26.595 276.562 26.2756 277.44 25.4555C278.317 24.6353 278.755 23.4084 278.755 21.7748V19.0723H287.523V26.595H295.009V34.2823H287.523V46.837C287.523 47.9294 287.719 48.8336 288.107 49.5563C288.498 50.279 289.102 50.8134 289.918 51.163C290.735 51.5126 291.75 51.6908 292.958 51.6908C293.231 51.6908 293.541 51.6706 293.892 51.6336C294.243 51.5966 294.611 51.5563 295.002 51.516V58.9378C294.418 59.0151 293.754 59.0924 293.015 59.1731C292.276 59.2504 291.571 59.2908 290.91 59.2908V59.2874Z" fill="#5A14BD"/>
<path d="M309.582 50.7126L324.935 33.3849V26.6017H297.519V34.2891H313.307L297.512 51.5261V58.9345H324.996V50.7126H309.582Z" fill="#5A14BD"/>
<path d="M54.5291 59.563C51.2872 59.563 48.332 58.8235 45.6737 57.3412C43.0086 55.8588 40.8901 53.8319 39.3113 51.2471C37.7291 48.6656 36.9397 45.7345 36.9397 42.4504C36.9397 39.1664 37.7291 36.1882 39.3113 33.6235C40.8934 31.0622 43.0154 29.042 45.6737 27.5597C48.3354 26.0773 51.2872 25.3378 54.5291 25.3378C57.771 25.3378 60.7161 26.0807 63.3542 27.5597C65.999 29.042 68.1074 31.0588 69.6929 33.6235C71.2751 36.1849 72.0645 39.1261 72.0645 42.4504C72.0645 45.7748 71.2751 48.6622 69.6929 51.2471C68.1108 53.8286 65.999 55.8588 63.3542 57.3412C60.7093 58.8235 57.771 59.563 54.5291 59.563ZM54.5291 51.4588C56.172 51.4588 57.599 51.079 58.8236 50.3193C60.0448 49.5597 61.0062 48.4975 61.7045 47.1362C62.4028 45.7748 62.7537 44.2151 62.7537 42.4538C62.7537 40.6925 62.4028 39.1395 61.7045 37.8017C61.0062 36.4605 60.0414 35.3983 58.8236 34.6185C57.6023 33.8387 56.1686 33.4488 54.5291 33.4488C52.8896 33.4488 51.4457 33.8387 50.2076 34.6185C48.9662 35.3983 47.9946 36.4605 47.293 37.8017C46.5946 39.1429 46.2438 40.6958 46.2438 42.4538C46.2438 44.2118 46.5946 45.7782 47.293 47.1362C47.9913 48.4975 48.9662 49.5597 50.2076 50.3193C51.4491 51.079 52.8896 51.4588 54.5291 51.4588Z" fill="#5A14BD"/>
<path d="M92.2044 59.563C88.9625 59.563 86.0073 58.8235 83.349 57.3412C80.6839 55.8588 78.5654 53.8319 76.9866 51.2471C75.4044 48.6656 74.615 45.7345 74.615 42.4504C74.615 39.1664 75.4044 36.1882 76.9866 33.6235C78.5687 31.0622 80.6907 29.042 83.349 27.5597C86.0107 26.0773 88.9625 25.3378 92.2044 25.3378C95.4463 25.3378 98.3914 26.0807 101.029 27.5597C103.674 29.042 105.783 31.0588 107.368 33.6235C108.95 36.1849 109.74 39.1261 109.74 42.4504C109.74 45.7748 108.95 48.6622 107.368 51.2471C105.786 53.8286 103.674 55.8588 101.029 57.3412C98.3846 58.8235 95.4463 59.563 92.2044 59.563ZM92.2044 51.4588C93.8473 51.4588 95.2743 51.079 96.4988 50.3193C97.72 49.5597 98.6815 48.4975 99.3832 47.1362C100.081 45.7748 100.432 44.2151 100.432 42.4538C100.432 40.6925 100.081 39.1395 99.3832 37.8017C98.6849 36.4605 97.72 35.3983 96.4988 34.6185C95.2776 33.8387 93.8439 33.4488 92.2044 33.4488C90.5649 33.4488 89.121 33.8387 87.8829 34.6185C86.6415 35.3983 85.6699 36.4605 84.9682 37.8017C84.2699 39.1429 83.9191 40.6958 83.9191 42.4538C83.9191 44.2118 84.2699 45.7782 84.9682 47.1362C85.6666 48.4975 86.6415 49.5597 87.8829 50.3193C89.1244 51.079 90.5649 51.4588 92.2044 51.4588Z" fill="#5A14BD"/>
<path d="M138.094 14.0269V29.3176C137.241 28.4672 136.252 27.7445 135.095 27.1832C133.253 26.2924 131.141 25.8453 128.766 25.8453C125.676 25.8453 122.883 26.5983 120.387 28.1042C117.89 29.61 115.91 31.6369 114.446 34.1916C112.978 36.7462 112.25 39.6067 112.25 42.7764C112.25 45.9462 112.972 48.7563 114.419 51.3311C115.866 53.9058 117.836 55.9428 120.333 57.4487C122.829 58.9546 125.659 59.7075 128.83 59.7075C131.047 59.7075 133.108 59.3008 135.011 58.4907C136.475 57.8655 137.699 57.005 138.695 55.9193L138.701 58.9445H147.02L147.014 14.0302H138.097L138.094 14.0269ZM137.055 47.4084C136.363 48.7563 135.399 49.805 134.171 50.5579C132.943 51.3109 131.516 51.6874 129.893 51.6874C128.27 51.6874 126.813 51.3109 125.528 50.5579C124.239 49.805 123.241 48.7563 122.529 47.4084C121.817 46.0605 121.459 44.5176 121.459 42.7764C121.459 41.0353 121.817 39.4991 122.529 38.1748C123.241 36.847 124.243 35.7983 125.528 35.0252C126.817 34.2521 128.27 33.8655 129.893 33.8655C131.516 33.8655 132.943 34.242 134.171 34.9949C135.399 35.7479 136.36 36.8 137.055 38.1445C137.747 39.4924 138.094 41.0353 138.094 42.7764C138.094 44.5176 137.747 46.0638 137.055 47.4084Z" fill="#5A14BD"/>
<path d="M209.629 25.3445V29.3143C208.776 28.4639 207.79 27.7412 206.63 27.1798C204.785 26.2891 202.676 25.842 200.301 25.842C197.211 25.842 194.418 26.595 191.922 28.1008C189.425 29.6067 187.445 31.6336 185.981 34.1882C184.513 36.7429 183.785 39.6034 183.785 42.7731C183.785 45.9429 184.507 48.7529 185.954 51.3277C187.401 53.9025 189.371 55.9395 191.868 57.4454C194.364 58.9513 197.194 59.7042 200.365 59.7042C202.582 59.7042 204.643 59.2975 206.546 58.4874C208.01 57.8622 209.234 57.0017 210.229 55.916V58.9445H218.549V25.3445H209.632H209.629ZM208.59 47.4084C207.898 48.7563 206.934 49.805 205.709 50.5546C204.481 51.3076 203.054 51.684 201.431 51.684C199.809 51.684 198.351 51.3076 197.066 50.5546C195.777 49.8017 194.779 48.7529 194.067 47.4084C193.355 46.0605 192.998 44.5177 192.998 42.7765C192.998 41.0353 193.355 39.4992 194.067 38.1748C194.779 36.8471 195.781 35.7983 197.066 35.0252C198.355 34.2521 199.809 33.8656 201.431 33.8656C203.054 33.8656 204.481 34.242 205.709 34.995C206.937 35.7479 207.898 36.8 208.59 38.1445C209.282 39.4924 209.629 41.0353 209.629 42.7765C209.629 44.5177 209.282 46.0639 208.59 47.4084Z" fill="#5A14BD"/>
<path d="M256.119 34.1949C254.652 31.6403 252.675 29.6134 250.178 28.1075C247.682 26.6016 244.892 25.8487 241.799 25.8487C239.42 25.8487 237.312 26.2958 235.47 27.1865C234.309 27.7479 233.324 28.4706 232.471 29.321V14.0269H223.558V58.9411H231.877V55.889C232.896 56.9848 234.131 57.8554 235.591 58.4874C237.47 59.2974 239.525 59.7042 241.741 59.7042C244.909 59.7042 247.743 58.9512 250.239 57.4453C252.735 55.9395 254.706 53.9025 256.153 51.3277C257.6 48.7529 258.322 45.9025 258.322 42.7731C258.322 39.6437 257.59 36.7462 256.122 34.1882V34.1949H256.119ZM248.04 47.4084C247.328 48.7563 246.336 49.805 245.071 50.5579C243.802 51.3109 242.335 51.6874 240.675 51.6874C239.015 51.6874 237.676 51.3109 236.428 50.5579C235.18 49.805 234.208 48.7563 233.513 47.4084C232.822 46.0605 232.474 44.5176 232.474 42.7764C232.474 41.0353 232.822 39.489 233.513 38.1445C234.205 36.7966 235.18 35.7479 236.428 34.9949C237.676 34.242 239.093 33.8655 240.675 33.8655C242.342 33.8655 243.802 34.2521 245.071 35.0252C246.339 35.7983 247.328 36.847 248.04 38.1748C248.751 39.5025 249.109 41.0386 249.109 42.7764C249.109 44.5143 248.751 46.0638 248.04 47.4084Z" fill="#5A14BD"/>
<path d="M333.2 50.7025C330.926 50.7025 329.078 52.5445 329.078 54.8168C329.078 57.0891 330.923 58.9311 333.2 58.9311C335.477 58.9311 337.319 57.0891 337.319 54.8168C337.319 52.5445 335.477 50.7025 333.2 50.7025ZM333.2 58.3798C331.23 58.3798 329.634 56.7865 329.634 54.8202C329.634 52.8538 331.23 51.2605 333.2 51.2605C335.17 51.2605 336.766 52.8538 336.766 54.8202C336.766 56.7865 335.17 58.3798 333.2 58.3798Z" fill="#5A14BD"/>
<path d="M334.391 54.8101C334.502 54.642 334.56 54.4403 334.56 54.2017C334.56 53.963 334.509 53.7714 334.408 53.6101C334.307 53.4487 334.162 53.321 333.983 53.237C333.801 53.1496 333.591 53.1093 333.355 53.1093H332.063V56.5748H332.694V55.2941H333.291L334.01 56.5748H334.728L333.932 55.1832C334.124 55.1025 334.276 54.9782 334.391 54.8101ZM333.858 54.4773C333.811 54.558 333.747 54.6185 333.662 54.6656C333.578 54.7126 333.48 54.7328 333.365 54.7328H332.701V53.6605H333.365C333.48 53.6605 333.581 53.684 333.662 53.7277C333.743 53.7748 333.811 53.8319 333.858 53.9126C333.905 53.9933 333.929 54.084 333.929 54.195C333.929 54.3059 333.905 54.3933 333.858 54.474V54.4807V54.4773Z" fill="#5A14BD"/>
<path d="M495.438 59.4521C493.201 59.4521 491.241 58.8874 489.558 57.758C487.875 56.6286 486.653 55.0958 485.901 53.1563L488.644 51.8555C489.312 53.274 490.239 54.4 491.43 55.2404C492.648 56.0773 493.984 56.4975 495.438 56.4975C496.892 56.4975 498.009 56.1647 498.967 55.4992C499.925 54.8034 500.404 53.9093 500.404 52.8067C500.404 51.9967 500.171 51.3614 499.709 50.8975C499.243 50.4067 498.707 50.0303 498.096 49.7681C497.486 49.5093 496.949 49.321 496.484 49.2034L493.131 48.2488C490.982 47.6404 489.43 46.7866 488.472 45.6874C487.514 44.5883 487.035 43.3143 487.035 41.8689C487.035 40.5076 487.382 39.321 488.08 38.3093C488.775 37.2975 489.72 36.5143 490.911 35.9664C492.102 35.4152 493.424 35.1429 494.875 35.1429C496.848 35.1429 498.636 35.6639 500.232 36.7059C501.858 37.7177 503.005 39.1362 503.673 40.958L500.886 42.2588C500.306 40.958 499.463 39.9429 498.359 39.2202C497.287 38.4673 496.079 38.0908 494.746 38.0908C493.414 38.0908 492.395 38.4236 491.609 39.0891C490.826 39.7546 490.432 40.595 490.432 41.6067C490.432 42.3866 490.634 43.0118 491.042 43.4723C491.451 43.9362 491.913 44.2824 492.436 44.5143C492.989 44.7462 493.468 44.9177 493.873 45.0353L497.749 46.1647C499.635 46.716 501.102 47.5664 502.148 48.7261C503.221 49.8824 503.76 51.2437 503.76 52.8067C503.76 54.0807 503.396 55.2236 502.671 56.2353C501.976 57.2471 501.001 58.0437 499.753 58.6219C498.505 59.1731 497.067 59.4454 495.441 59.4454L495.438 59.4521Z" fill="#5A14BD"/>
<path d="M479.38 59.1933C477.289 59.1933 475.68 58.5849 474.546 57.3714C473.413 56.1546 472.849 54.4202 472.849 52.1647V38.9277H468.538V35.6739H469.627C470.616 35.6739 471.399 35.3546 471.979 34.7193C472.559 34.0538 472.849 33.2302 472.849 32.2454V30.2924H476.115V35.6739H481.253V38.9277H476.115V52.1647C476.115 52.9445 476.229 53.6403 476.462 54.2487C476.695 54.8269 477.086 55.2907 477.64 55.637C478.22 55.9832 478.989 56.158 479.947 56.158C480.18 56.158 480.456 56.1445 480.774 56.1143C481.094 56.084 481.367 56.0571 481.6 56.0269V58.9344C481.253 59.0218 480.861 59.079 480.423 59.1092C479.987 59.1664 479.64 59.1966 479.377 59.1966L479.38 59.1933Z" fill="#5A14BD"/>
<path d="M455.735 58.9311V35.6672H459.001V39.4857L458.566 38.921C459.119 37.8218 459.945 36.9546 461.049 36.316C462.182 35.6807 463.545 35.3613 465.141 35.3613H466.622V38.6151H464.574C462.89 38.6151 461.538 39.1361 460.522 40.1781C459.507 41.2202 458.997 42.6958 458.997 44.605V58.9277H455.732L455.735 58.9311Z" fill="#5A14BD"/>
<path d="M439.57 59.4521C437.39 59.4521 435.417 58.9311 433.646 57.8891C431.905 56.8168 430.525 55.358 429.51 53.5059C428.494 51.6538 427.985 49.5563 427.985 47.2135C427.985 44.8706 428.478 42.8 429.466 41.0084C430.455 39.1866 431.787 37.7546 433.474 36.7126C435.187 35.6706 437.104 35.1496 439.222 35.1496C440.906 35.1496 442.4 35.4689 443.709 36.1042C445.045 36.7126 446.178 37.5496 447.106 38.6219C448.037 39.6639 448.746 40.8504 449.241 42.1815C449.734 43.4824 449.984 44.8303 449.984 46.2185C449.984 46.5076 449.97 46.8404 449.94 47.2168C449.909 47.563 449.869 47.9261 449.808 48.3025H430.08V45.2639H447.936L446.367 46.5647C446.627 44.9748 446.438 43.5563 445.801 42.3126C445.19 41.0387 444.306 40.0404 443.142 39.3177C441.982 38.5647 440.676 38.1883 439.222 38.1883C437.768 38.1883 436.419 38.5647 435.171 39.3177C433.953 40.0706 432.991 41.1261 432.296 42.4841C431.601 43.8151 431.325 45.4051 431.47 47.2572C431.325 49.1093 431.615 50.7294 432.34 52.1177C433.096 53.4756 434.111 54.5345 435.39 55.2874C436.695 56.0404 438.089 56.4168 439.57 56.4168C441.283 56.4168 442.721 56.0101 443.881 55.2034C445.041 54.3933 445.986 53.3815 446.711 52.1647L449.498 53.6404C449.032 54.6824 448.321 55.6504 447.362 56.5479C446.404 57.4151 445.257 58.1244 443.921 58.6756C442.616 59.1967 441.162 59.4555 439.566 59.4555L439.57 59.4521Z" fill="#5A14BD"/>
<path d="M399.894 67.6101V35.6672H403.16V40.874L402.637 39.963C403.568 38.4874 404.799 37.3143 406.337 36.4471C407.906 35.5799 409.691 35.1462 411.694 35.1462C413.901 35.1462 415.861 35.6807 417.574 36.753C419.315 37.795 420.681 39.2269 421.67 41.0488C422.685 42.8706 423.195 44.9546 423.195 47.2975C423.195 49.6404 422.685 51.6941 421.67 53.5462C420.681 55.3681 419.319 56.8168 417.574 57.8857C415.861 58.9278 413.901 59.4488 411.694 59.4488C409.691 59.4488 407.876 59.0017 406.25 58.1042C404.654 57.1799 403.446 55.8757 402.633 54.1983L403.156 53.721V67.6101H399.891H399.894ZM411.522 56.1983C413.091 56.1983 414.484 55.8084 415.702 55.0252C416.95 54.2454 417.922 53.1866 418.62 51.8588C419.346 50.4975 419.71 48.9815 419.71 47.3009C419.71 45.6202 419.346 44.074 418.62 42.7429C417.922 41.4118 416.95 40.3563 415.702 39.5731C414.484 38.7933 413.088 38.4 411.522 38.4C409.957 38.4 408.534 38.7899 407.255 39.5731C406.007 40.353 405.005 41.4252 404.249 42.7866C403.524 44.1177 403.16 45.6236 403.16 47.3009C403.16 48.9782 403.524 50.4975 404.249 51.8588C405.005 53.1899 406.007 54.2454 407.255 55.0252C408.534 55.8051 409.954 56.1983 411.522 56.1983Z" fill="#5A14BD"/>
<path d="M375.797 58.9311L383.985 47.3008L375.841 35.6706H379.849L387.078 46.1311H384.858L392.044 35.6706H396.052L387.908 47.3008L396.052 58.9311H392.044L384.858 48.4706H387.078L379.849 58.9311H375.797Z" fill="#5A14BD"/>
<path d="M352.479 58.9345V26.6017H373.388V29.8555H355.964V41.0958H372.518V44.3496H355.964V55.6773H373.388V58.9311H352.479V58.9345Z" fill="#5A14BD"/>
</svg>
